<?xml version="1.0" encoding="utf-8"?>
<!-- Generator: Adobe Illustrator 16.0.0, SVG Export Plug-In . SVG Version: 6.00 Build 0)  -->
<!DOCTYPE svg PUBLIC "-//W3C//DTD SVG 1.1//EN" "http://www.w3.org/Graphics/SVG/1.1/DTD/svg11.dtd">
<svg version="1.1" id="Layer_1" xmlns="http://www.w3.org/2000/svg" xmlns:xlink="http://www.w3.org/1999/xlink" x="0px" y="0px"
	 width="552.482px" height="253.191px" viewBox="0 0 552.482 253.191" enable-background="new 0 0 552.482 253.191"
	 xml:space="preserve">
<g>
	<polygon fill="#0CA834" points="197.237,48.208 357.875,48.208 357.875,27.297 197.237,27.297 197.237,48.208 	"/>
	<polygon fill="#0CA834" points="197.172,108.395 357.812,108.395 357.812,87.482 197.172,87.482 197.172,108.395 	"/>
	<polygon fill="#0CA834" points="197.237,168.724 357.875,168.724 357.875,147.813 197.237,147.813 197.237,168.724 	"/>
	<path fill="#0CA834" d="M135.363,102.4c0-7.242-0.475-14.334-1.416-21.282c-1.326-7.048-3.548-13.453-6.668-19.23
		c-5.86-12.035-16.922-18.246-33.181-18.64C78.878,43.642,68.152,50.05,61.91,62.477c-6.15,11.937-9.129,25.244-8.932,39.924
		c0,7.046,0.665,13.945,1.986,20.694c1.134,7.05,3.069,13.455,5.812,19.229c2.93,5.869,6.997,10.522,12.195,13.944
		c4.819,3.524,11.01,5.281,18.577,5.281c16.637-0.385,28.265-6.795,34.884-19.226C132.577,130.583,135.559,117.278,135.363,102.4
		L135.363,102.4L135.363,102.4z M25.556,53.963c-0.399-8.897-0.891-17.788-1.484-26.685h28.061l0.847,23.75h0.569
		c4.437-10.511,10.991-17.939,19.677-22.28c8.488-3.953,18.447-5.931,29.871-5.931c20.664,0.394,36.045,8.469,46.145,24.245
		c10.003,15.768,15.007,34.215,15.007,55.339c0,9.538-1.037,19.034-3.115,28.475c-2.546,9.345-6.511,17.814-11.892,25.407
		c-10.662,16.549-28.924,25.115-54.782,25.7c-6.23,0-13.212-1.685-20.954-5.043c-7.924-3.164-14.483-8.586-19.676-16.267h-0.85
		v74.169H25.556V53.963L25.556,53.963z"/>
	<path fill="#0CA834" d="M506.232,102.4c0-7.242-0.478-14.334-1.417-21.282c-1.323-7.048-3.548-13.453-6.663-19.23
		c-5.865-12.035-16.924-18.246-33.181-18.64c-15.221,0.394-25.953,6.802-32.192,19.229c-6.152,11.937-9.127,25.244-8.932,39.924
		c0,7.046,0.661,13.945,1.985,20.694c1.135,7.05,3.071,13.455,5.816,19.229c2.931,5.869,6.99,10.522,12.193,13.944
		c4.813,3.524,11.01,5.281,18.573,5.281c16.637-0.385,28.265-6.795,34.885-19.226C503.448,130.583,506.427,117.278,506.232,102.4
		L506.232,102.4L506.232,102.4z M396.425,53.963c-0.399-8.897-0.891-17.788-1.479-26.685h28.06l0.848,23.75h0.564
		c4.434-10.511,10.995-17.939,19.679-22.28c8.488-3.953,18.442-5.931,29.866-5.931c20.667,0.394,36.053,8.469,46.152,24.245
		c10.002,15.768,15.001,34.215,15.001,55.339c0,9.538-1.036,19.034-3.11,28.475c-2.551,9.345-6.518,17.814-11.891,25.407
		c-10.67,16.549-28.932,25.115-54.787,25.7c-6.23,0-13.215-1.685-20.949-5.043c-7.929-3.164-14.49-8.586-19.679-16.267h-0.852
		v74.169h-27.423V53.963L396.425,53.963z"/>
</g>
</svg>
