<?xml version="1.0" encoding="UTF-8" standalone="no"?>
<svg
   xmlns:dc="http://purl.org/dc/elements/1.1/"
   xmlns:cc="http://creativecommons.org/ns#"
   xmlns:rdf="http://www.w3.org/1999/02/22-rdf-syntax-ns#"
   xmlns:svg="http://www.w3.org/2000/svg"
   xmlns="http://www.w3.org/2000/svg"
   xmlns:sodipodi="http://sodipodi.sourceforge.net/DTD/sodipodi-0.dtd"
   xmlns:inkscape="http://www.inkscape.org/namespaces/inkscape"
   viewBox="0 0 100.0 100.0"
   width="16"
   height="16"
   version="1.1"
   id="svg4"
   sodipodi:docname="status-lock-error-18.svg"
   inkscape:version="0.92.4 (5da689c313, 2019-01-14)">
  <metadata
     id="metadata10">
    <rdf:RDF>
      <cc:Work
         rdf:about="">
        <dc:format>image/svg+xml</dc:format>
        <dc:type
           rdf:resource="http://purl.org/dc/dcmitype/StillImage" />
      </cc:Work>
    </rdf:RDF>
  </metadata>
  <defs
     id="defs8" />
  <sodipodi:namedview
     pagecolor="#ffffff"
     bordercolor="#666666"
     borderopacity="1"
     objecttolerance="10"
     gridtolerance="10"
     guidetolerance="10"
     inkscape:pageopacity="0"
     inkscape:pageshadow="2"
     inkscape:window-width="1920"
     inkscape:window-height="1055"
     id="namedview6"
     showgrid="false"
     inkscape:zoom="13.111111"
     inkscape:cx="-3.6610169"
     inkscape:cy="9"
     inkscape:window-x="0"
     inkscape:window-y="25"
     inkscape:window-maximized="0"
     inkscape:current-layer="svg4" />
  <path
     d="M80.46,45.47L78.53,45.47L78.53,29.83C78.43,10.63 65.34,0.18 49.43,0.18C33.53,0.18 19.26,11.13 19.76,29.83L19.75,45.45C19.75,45.45 19.99,45.47 18.78,45.47C17.51,45.47 9.15,46.95 9.15,54.41L9.15,90.23C9.15,98.19 18.57,100.17 18.78,100.17L79.98,100.17C80.2,100.17 89.14,99.18 89.14,90.23L89.14,54.9C89.14,46.45 80.68,45.47 80.46,45.47L80.46,45.47ZM33.23,30.03C33.23,20.08 39.3,12.13 49.14,12.13C58.88,12.13 65.04,19.09 65.04,30.03L65.06,45.47L33.22,45.47L33.23,30.03L33.23,30.03ZM59.4,90.87L48.46,79.93L38.23,90.36L31.64,83.76L42.58,72.82L32.34,62.59L38.75,56.11L49.7,67.05L60.12,56.71L66.64,63.22L55.69,74.17L66.01,84.48L59.4,90.87Z"
     fill="#000000"
     id="path2"
     style="fill:#cc0000;fill-opacity:1" />
</svg>
