<?xml version="1.0" encoding="UTF-8" standalone="no"?>
<svg
   xmlns:dc="http://purl.org/dc/elements/1.1/"
   xmlns:cc="http://creativecommons.org/ns#"
   xmlns:rdf="http://www.w3.org/1999/02/22-rdf-syntax-ns#"
   xmlns:svg="http://www.w3.org/2000/svg"
   xmlns="http://www.w3.org/2000/svg"
   xmlns:sodipodi="http://sodipodi.sourceforge.net/DTD/sodipodi-0.dtd"
   xmlns:inkscape="http://www.inkscape.org/namespaces/inkscape"
   viewBox="0 0 100.0 100.0"
   width="16"
   height="16"
   version="1.1"
   id="svg6"
   sodipodi:docname="status-lock-disabled-18.svg"
   inkscape:version="0.92.4 (5da689c313, 2019-01-14)">
  <metadata
     id="metadata12">
    <rdf:RDF>
      <cc:Work
         rdf:about="">
        <dc:format>image/svg+xml</dc:format>
        <dc:type
           rdf:resource="http://purl.org/dc/dcmitype/StillImage" />
        <dc:title></dc:title>
      </cc:Work>
    </rdf:RDF>
  </metadata>
  <defs
     id="defs10" />
  <sodipodi:namedview
     pagecolor="#ffffff"
     bordercolor="#666666"
     borderopacity="1"
     objecttolerance="10"
     gridtolerance="10"
     guidetolerance="10"
     inkscape:pageopacity="0"
     inkscape:pageshadow="2"
     inkscape:window-width="1920"
     inkscape:window-height="1055"
     id="namedview8"
     showgrid="false"
     inkscape:zoom="4.6354778"
     inkscape:cx="13.423004"
     inkscape:cy="17.0011"
     inkscape:window-x="0"
     inkscape:window-y="25"
     inkscape:window-maximized="0"
     inkscape:current-layer="svg6" />
  <path
     d="M50.48,-0.16C39.1,-0.16 28.58,5.44 23.69,15.47L34.51,26.48C35.67,18.09 41.43,11.78 50.18,11.78C59.92,11.78 66.09,18.74 66.09,29.69L66.1,45.13L52.83,45.13L90.18,83.16L90.18,54.56C90.18,46.11 81.73,45.13 81.5,45.13L79.58,45.13L79.58,29.48C79.48,10.28 66.39,-0.16 50.48,-0.16zM20.8,27.68C20.79,28.27 20.78,28.87 20.8,29.48L20.79,45.11C20.79,45.11 21.02,45.13 19.82,45.13C18.55,45.13 10.19,46.61 10.19,54.07L10.19,89.89C10.19,97.85 19.6,99.84 19.82,99.84L81.03,99.84C81.19,99.84 85.92,99.3 88.51,95.59L38.2,45.13L34.26,45.13L34.27,41.19L20.8,27.68z"
     fill="#000000"
     id="path2"
     style="fill:#b4b4b4;fill-opacity:1" />
  <path
     d="M 9.0366102,22.37678 14.78,16.06 l 78.583306,79.52661 -4.725044,4.60586 z"
     id="path4"
     style="fill:#4a4a4a;fill-opacity:1"
     inkscape:connector-curvature="0"
     sodipodi:nodetypes="ccccc" />
</svg>
