<?xml version="1.0" encoding="UTF-8" standalone="no"?>
<svg
   xmlns:dc="http://purl.org/dc/elements/1.1/"
   xmlns:cc="http://creativecommons.org/ns#"
   xmlns:rdf="http://www.w3.org/1999/02/22-rdf-syntax-ns#"
   xmlns:svg="http://www.w3.org/2000/svg"
   xmlns="http://www.w3.org/2000/svg"
   xmlns:sodipodi="http://sodipodi.sourceforge.net/DTD/sodipodi-0.dtd"
   xmlns:inkscape="http://www.inkscape.org/namespaces/inkscape"
   viewBox="0 0 100.0 100.0"
   width="12"
   height="12"
   version="1.1"
   id="svg4"
   sodipodi:docname="status-lock-18.svg"
   inkscape:version="0.92.4 (5da689c313, 2019-01-14)">
  <metadata
     id="metadata10">
    <rdf:RDF>
      <cc:Work
         rdf:about="">
        <dc:format>image/svg+xml</dc:format>
        <dc:type
           rdf:resource="http://purl.org/dc/dcmitype/StillImage" />
      </cc:Work>
    </rdf:RDF>
  </metadata>
  <defs
     id="defs8" />
  <sodipodi:namedview
     pagecolor="#ffffff"
     bordercolor="#666666"
     borderopacity="1"
     objecttolerance="10"
     gridtolerance="10"
     guidetolerance="10"
     inkscape:pageopacity="0"
     inkscape:pageshadow="2"
     inkscape:window-width="1920"
     inkscape:window-height="1055"
     id="namedview6"
     showgrid="false"
     inkscape:zoom="13.111111"
     inkscape:cx="-16.322034"
     inkscape:cy="8.9999999"
     inkscape:window-x="0"
     inkscape:window-y="25"
     inkscape:window-maximized="0"
     inkscape:current-layer="svg4" />
  <path
     d="m81.5,45.13 l-1.92,0 0,-15.65C79.48,10.28 66.39,-0.16 50.48,-0.16 34.57,-0.16 20.3,10.78 20.8,29.48l-0.02,15.63c0,0 0.24,0.02 -0.96,0.02 -1.27,0 -9.64,1.47 -9.64,8.94l0,35.82c0,7.96 9.42,9.94 9.64,9.94l61.2,0c0.22,0 9.15,-0.99 9.15,-9.94l0,-35.33c0,-8.45 -8.45,-9.43 -8.68,-9.43zM34.26,45.13 L34.28,29.69c0,-9.95 6.07,-17.9 15.91,-17.9 9.74,0 15.9,6.96 15.9,17.9l0.01,15.45 -31.84,0z"
     fill="#000000"
     id="path2"
     style="fill:#4cbb17;fill-opacity:1" />
</svg>
